<svg width="19" height="21" viewBox="0 0 19 21" fill="none" xmlns="http://www.w3.org/2000/svg">
<path d="M11.75 15.75V16.75C11.75 18.4069 10.4069 19.75 8.75 19.75C7.09315 19.75 5.75 18.4069 5.75 16.75V15.7501M15.7305 8.2261C15.7436 8.39855 15.75 8.57357 15.75 8.75V12.4722C15.75 12.65 15.8206 12.8206 15.9463 12.9463L16.457 13.457C16.6445 13.6446 16.75 13.8989 16.75 14.1641V14.75C16.75 15.3023 16.3023 15.75 15.75 15.75H11.75L5.75 15.7501M5.75 15.7501L1.75 15.7501C1.19772 15.7501 0.75 15.3021 0.75 14.7498V14.1641C0.75 13.8989 0.855439 13.6449 1.04297 13.4573L1.55371 12.9458C1.67939 12.8201 1.75 12.6502 1.75 12.4724V8.74998C1.75 4.88401 4.884 1.75 8.75 1.75C9.46161 1.75 10.1484 1.85618 10.7954 2.05357M15.7305 8.2261C16.9368 7.5373 17.75 6.23861 17.75 4.75C17.75 2.54086 15.9591 0.75 13.75 0.75C12.5798 0.75 11.5269 1.25253 10.7954 2.05357M15.7305 8.2261C15.1466 8.55949 14.4705 8.75 13.75 8.75C11.5409 8.75 9.75 6.95914 9.75 4.75C9.75 3.7111 10.1461 2.7647 10.7954 2.05357M15.7305 8.2261C15.7305 8.22609 15.7305 8.2261 15.7305 8.2261ZM10.7954 2.05357C10.7959 2.05371 10.7964 2.05385 10.7968 2.054" stroke="#0065FF" stroke-width="1.5" stroke-linecap="round" stroke-linejoin="round"/>
</svg>
