<svg width="26" height="14" viewBox="0 0 26 14" fill="none" xmlns="http://www.w3.org/2000/svg">
<path d="M1.16667 11.6667H24.5V14H1.16667V11.6667ZM2.50833 6.94167L3.5 5.215L4.49167 6.94167L6.00833 6.06667L5.01667 4.34H7V2.59H5.01667L6.00833 0.875L4.49167 0L3.5 1.715L2.50833 0L0.991667 0.875L1.98333 2.59H0V4.34H1.98333L0.991667 6.06667L2.50833 6.94167ZM10.325 6.06667L11.8417 6.94167L12.8333 5.215L13.825 6.94167L15.3417 6.06667L14.35 4.34H16.3333V2.59H14.35L15.3417 0.875L13.825 0L12.8333 1.715L11.8417 0L10.325 0.875L11.3167 2.59H9.33333V4.34H11.3167L10.325 6.06667ZM25.6667 2.59H23.6833L24.675 0.875L23.1583 0L22.1667 1.715L21.175 0L19.6583 0.875L20.65 2.59H18.6667V4.34H20.65L19.6583 6.06667L21.175 6.94167L22.1667 5.215L23.1583 6.94167L24.675 6.06667L23.6833 4.34H25.6667V2.59Z" fill="white"/>
</svg>
