<svg width="83" height="50" viewBox="0 0 83 50" fill="none" xmlns="http://www.w3.org/2000/svg">
<g filter="url(#filter0_d_223_3517)">
<rect x="12.05" y="12.0763" width="33.3946" height="25.3119" rx="3.2948" fill="url(#paint0_linear_223_3517)"/>
</g>
<path d="M43.7817 12.7534C43.9334 12.7534 44.0563 12.6304 44.0563 12.4788C44.0563 12.3272 43.9334 12.2042 43.7817 12.2042V12.7534ZM44.9867 20.4017H45.2613V19.8525H44.9867V20.4017ZM13.8084 36.8985L13.6708 37.1361V37.1361L13.8084 36.8985ZM12.4924 13.9464L12.2308 13.8629V13.8629L12.4924 13.9464ZM21.69 19.8525H12.8533V20.4017H21.69V19.8525ZM21.69 27.9034H12.8533V28.4525H21.69V27.9034ZM35.3467 28.4525H44.9867V27.9034H35.3467V28.4525ZM35.7484 12.7534H43.7817V12.2042H35.7484V12.7534ZM28.1167 12.7534H35.3467V12.2042H28.1167V12.7534ZM20.485 12.7534H27.715V12.2042H20.485V12.7534ZM27.8421 12.8813V13.2839H28.3913V12.8813H27.8421ZM26.9117 14.217H22.895V14.7661H26.9117V14.217ZM21.4154 15.6991V33.411H21.9646V15.6991H21.4154ZM34.0146 33.411V21.3347H33.4655V33.411H34.0146ZM34.945 20.4017H44.9867V19.8525H34.945V20.4017ZM33.4655 33.411C33.4655 33.9269 33.0483 34.3441 32.535 34.3441V34.8932C33.3527 34.8932 34.0146 34.229 34.0146 33.411H33.4655ZM21.4154 33.411C21.4154 34.229 22.0773 34.8932 22.895 34.8932V34.3441C22.3817 34.3441 21.9646 33.9269 21.9646 33.411H21.4154ZM22.895 14.217C22.0773 14.217 21.4154 14.8811 21.4154 15.6991H21.9646C21.9646 15.1833 22.3817 14.7661 22.895 14.7661V14.217ZM34.0146 21.3347C34.0146 20.8189 34.4317 20.4017 34.945 20.4017V19.8525C34.1273 19.8525 33.4655 20.5167 33.4655 21.3347H34.0146ZM27.8421 13.2839C27.8421 13.7998 27.425 14.217 26.9117 14.217V14.7661C27.7294 14.7661 28.3913 14.1019 28.3913 13.2839H27.8421ZM27.8421 34.6186V37.0339H28.3913V34.6186H27.8421ZM43.3801 36.7593H14.3428V37.3085H43.3801V36.7593ZM13.946 36.6609C13.6758 36.5044 13.3568 36.287 13.1094 36.049C12.8486 35.7981 12.7262 35.5806 12.7262 35.4237H12.1771C12.1771 35.8215 12.4518 36.1784 12.7287 36.4448C13.019 36.7241 13.3785 36.9668 13.6708 37.1361L13.946 36.6609ZM12.7262 35.4237V14.2342H12.1771V35.4237H12.7262ZM12.7539 14.0299C12.8361 13.7726 12.991 13.4422 13.2181 13.1817C13.443 12.9236 13.7199 12.7534 14.0583 12.7534V12.2042C13.5121 12.2042 13.096 12.486 12.8042 12.8208C12.5144 13.1532 12.3287 13.5566 12.2308 13.8629L12.7539 14.0299ZM14.0583 12.7534H20.0833V12.2042H14.0583V12.7534ZM12.7262 14.2342C12.7262 14.1555 12.7347 14.0901 12.7539 14.0299L12.2308 13.8629C12.19 13.9908 12.1771 14.1154 12.1771 14.2342H12.7262ZM14.3428 36.7593C14.1957 36.7593 14.0595 36.7266 13.946 36.6609L13.6708 37.1361C13.8813 37.258 14.1158 37.3085 14.3428 37.3085V36.7593ZM22.895 34.8932H32.535V34.3441H22.895V34.8932Z" fill="black"/>
<path d="M71.9181 14.101C71.6487 14.0602 71.3639 14.1224 71.1281 14.299C70.6555 14.6489 70.5565 15.3171 70.9056 15.7908C72.7152 18.2443 73.7123 21.4278 73.7123 24.7561C73.7123 28.0844 72.7152 31.269 70.9056 33.7236C70.5565 34.1972 70.6555 34.8655 71.1281 35.2154C71.3176 35.3573 71.5398 35.4237 71.7601 35.4237C72.0869 35.4237 72.408 35.2741 72.6166 34.9924C74.6955 32.173 75.8412 28.5378 75.8412 24.7561C75.8412 20.9745 74.6955 17.3403 72.6166 14.5219C72.4421 14.2856 72.1875 14.1418 71.9181 14.101ZM68.3381 16.2762C68.0681 16.2406 67.7853 16.309 67.5522 16.4887C67.086 16.8472 66.9971 17.5175 67.3547 17.9847C68.6885 19.7257 69.4545 22.1938 69.4545 24.7561C69.4545 27.3121 68.6925 29.7772 67.363 31.5192C67.0065 31.9865 67.0953 32.6557 67.5626 33.0131C67.7553 33.1614 67.9814 33.234 68.2071 33.234C68.5264 33.234 68.8425 33.0893 69.0533 32.8152C70.684 30.6785 71.5834 27.8156 71.5834 24.7561C71.5834 21.6881 70.681 18.8224 69.0429 16.6846C68.8635 16.451 68.6081 16.3118 68.3381 16.2762ZM64.7705 18.4118C64.4987 18.3934 64.2201 18.4797 63.9992 18.6743C63.5564 19.0616 63.512 19.7349 63.8994 20.1786C64.6999 21.0961 65.1967 22.8498 65.1967 24.7561C65.1967 26.6624 64.6989 28.4162 63.8974 29.3336C63.511 29.7774 63.5564 30.4507 63.9992 30.8379C64.2015 31.015 64.4518 31.1025 64.6999 31.1025C64.9968 31.1025 65.2916 30.9801 65.5023 30.7379C66.6434 29.4301 67.3256 27.1926 67.3256 24.7561C67.3256 22.3196 66.6424 20.0822 65.5003 18.7744C65.3065 18.5519 65.0424 18.4302 64.7705 18.4118ZM61.0076 20.6891C60.7357 20.6714 60.4577 20.7575 60.2363 20.9516C59.7945 21.3399 59.75 22.0132 60.1386 22.4559C60.6463 23.0373 60.939 23.8761 60.939 24.7561C60.939 25.6362 60.6463 26.4749 60.1386 27.0563C59.7511 27.499 59.7966 28.1723 60.2383 28.5606C60.4406 28.7377 60.6899 28.8252 60.939 28.8252C61.2338 28.8252 61.5297 28.7027 61.7394 28.4627C62.5973 27.4845 63.0678 26.1675 63.0678 24.7561C63.0678 23.3448 62.5973 22.0278 61.7394 21.0496C61.5462 20.8282 61.2794 20.7068 61.0076 20.6891Z" fill="white"/>
<defs>
<filter id="filter0_d_223_3517" x="12.05" y="12.0763" width="33.9437" height="25.861" filterUnits="userSpaceOnUse" color-interpolation-filters="sRGB">
<feFlood flood-opacity="0" result="BackgroundImageFix"/>
<feColorMatrix in="SourceAlpha" type="matrix" values="0 0 0 0 0 0 0 0 0 0 0 0 0 0 0 0 0 0 127 0" result="hardAlpha"/>
<feOffset dx="0.549133" dy="0.549133"/>
<feComposite in2="hardAlpha" operator="out"/>
<feColorMatrix type="matrix" values="0 0 0 0 0.604232 0 0 0 0 0.604232 0 0 0 0 0.604232 0 0 0 1 0"/>
<feBlend mode="normal" in2="BackgroundImageFix" result="effect1_dropShadow_223_3517"/>
<feBlend mode="normal" in="SourceGraphic" in2="effect1_dropShadow_223_3517" result="shape"/>
</filter>
<linearGradient id="paint0_linear_223_3517" x1="44.5851" y1="12.4788" x2="12.8018" y2="36.967" gradientUnits="userSpaceOnUse">
<stop stop-color="#FFC691"/>
<stop offset="0.347245" stop-color="#FFCFA3"/>
<stop offset="0.524405" stop-color="#FFCEA1"/>
<stop offset="0.776262" stop-color="#FFBD80"/>
<stop offset="1" stop-color="#FABB81"/>
</linearGradient>
</defs>
</svg>
