<svg width="20" height="16" viewBox="0 0 20 16" fill="none" xmlns="http://www.w3.org/2000/svg">
<path d="M0.75 6.75V11.5502C0.75 12.6703 0.75 13.2301 0.967987 13.6579C1.15973 14.0342 1.46547 14.3405 1.8418 14.5322C2.2692 14.75 2.82899 14.75 3.94691 14.75H15.5531C16.671 14.75 17.23 14.75 17.6574 14.5322C18.0337 14.3405 18.3405 14.0342 18.5322 13.6579C18.75 13.2305 18.75 12.6715 18.75 11.5536V6.75M0.75 6.75V4.75M0.75 6.75H18.75M0.75 4.75V3.9502C0.75 2.83009 0.75 2.26962 0.967987 1.8418C1.15973 1.46547 1.46547 1.15973 1.8418 0.967987C2.26962 0.75 2.83009 0.75 3.9502 0.75H15.5502C16.6703 0.75 17.2296 0.75 17.6574 0.967987C18.0337 1.15973 18.3405 1.46547 18.5322 1.8418C18.75 2.2692 18.75 2.82899 18.75 3.94691V4.75M0.75 4.75H18.75M4.75 10.75H8.75M18.75 6.75V4.75" stroke="#0065FF" stroke-width="1.5" stroke-linecap="round" stroke-linejoin="round"/>
</svg>
