<svg width="16" height="20" viewBox="0 0 16 20" fill="none" xmlns="http://www.w3.org/2000/svg">
<path d="M4.75 14.75H10.75M4.75 11.75H10.75M8.75038 0.750872C8.65484 0.75 8.54738 0.75 8.42471 0.75H3.9502C2.83009 0.75 2.26962 0.75 1.8418 0.967988C1.46547 1.15973 1.15973 1.46547 0.967987 1.8418C0.75 2.26962 0.75 2.83009 0.75 3.9502V15.5502C0.75 16.6703 0.75 17.2301 0.967988 17.6579C1.15973 18.0342 1.46547 18.3405 1.8418 18.5322C2.26921 18.75 2.829 18.75 3.94694 18.75L11.5531 18.75C12.671 18.75 13.23 18.75 13.6574 18.5322C14.0337 18.3405 14.3405 18.0342 14.5322 17.6579C14.75 17.2305 14.75 16.6715 14.75 15.5536V7.07568C14.75 6.95302 14.7499 6.84553 14.749 6.75M8.75038 0.750872C9.03583 0.753475 9.21572 0.764066 9.38818 0.80547C9.59225 0.854464 9.78785 0.935265 9.9668 1.04492C10.1686 1.16857 10.3418 1.34181 10.6875 1.6875L13.813 4.81298C14.1589 5.15889 14.3309 5.33136 14.4546 5.53319C14.5642 5.71214 14.6453 5.90726 14.6943 6.11133C14.7357 6.28379 14.7464 6.46454 14.749 6.75M8.75038 0.750872L8.75 3.55021C8.75 4.67031 8.75 5.23015 8.96799 5.65797C9.15973 6.0343 9.46547 6.34048 9.8418 6.53223C10.2692 6.75 10.829 6.75 11.9469 6.75H14.749" stroke="#0065FF" stroke-width="1.5" stroke-linecap="round" stroke-linejoin="round"/>
</svg>
