<svg width="22" height="23" viewBox="0 0 22 23" fill="none" xmlns="http://www.w3.org/2000/svg">
<path fill-rule="evenodd" clip-rule="evenodd" d="M10.207 4.121L7.5 1.414L8.914 0L11.207 2.293L13.5 0L14.914 1.414L12.207 4.121V7.293L12.957 8.043L15.207 5.793V3.207H17.207V5.207H19.207V7.207H16.621L14.371 9.457L15.121 10.207H17.793L20.5 7.5L21.914 8.914L19.621 11.207L21.914 13.5L20.5 14.914L17.793 12.207H15.121L14.371 12.957L16.621 15.207H19.207V17.207H17.207V19.207H15.207V16.621L12.957 14.371L12.207 15.121V18.293L14.914 21L13.5 22.414L11.207 20.121L8.914 22.414L7.5 21L10.207 18.293V15.121L9.457 14.371L7.207 16.621V19.207H5.207V17.207H3.207V15.207H5.793L8.043 12.957L7.293 12.207H4.121L1.414 14.914L0 13.5L2.293 11.207L0 8.914L1.414 7.5L4.121 10.207H7.293L8.043 9.457L5.793 7.207H3.207V5.207H5.207V3.207H7.207V5.793L9.457 8.043L10.207 7.293V4.121ZM11.207 13.293L9.121 11.207L11.207 9.121L13.293 11.207L11.207 13.293Z" fill="#E9E9EA"/>
</svg>
