<svg width="22" height="22" viewBox="0 0 22 22" fill="none" xmlns="http://www.w3.org/2000/svg">
<path d="M2 0.375H8.73047L9.64453 3.11816L9.72949 3.375H20C20.8929 3.375 21.625 4.10711 21.625 5V20C21.625 20.8929 20.8929 21.625 20 21.625H11.2695L10.3555 18.8818L10.2705 18.625H2C1.10711 18.625 0.375 17.8929 0.375 17V2C0.375 1.10711 1.10711 0.375 2 0.375ZM10.1045 4.62012L11.3848 8.41016L11.4707 8.66504H13.5547V7.375H14.0947V8.66504H18.625V9.21484H16.8232L16.7412 9.47949C16.288 10.9547 15.5173 12.3431 14.4287 13.5498L14.415 13.5645L14.1475 13.832L14.417 14.0977L17.4463 17.082L17.0596 17.4688L14.2256 14.6348L13.6045 15.0195L14.5791 17.9248L12.707 20.2656L12.2197 20.875H19.5C20.2571 20.875 20.875 20.2571 20.875 19.5V5.5C20.875 4.74289 20.2571 4.125 19.5 4.125H9.9375L10.1045 4.62012ZM6 4.625C3.03289 4.625 0.625 7.03289 0.625 10C0.625 12.9671 3.03289 15.375 6 15.375C7.53604 15.375 8.83664 14.8336 9.75293 13.8887C10.6679 12.945 11.1747 11.6248 11.1748 10.1104C11.1748 9.66483 11.1199 9.33578 11.0459 9.00781L10.9795 8.71484H5.625V11.1748H8.46484C8.23237 11.9422 7.50152 12.835 6 12.835C4.47398 12.835 3.22461 11.5698 3.22461 10C3.22461 8.43016 4.47398 7.16504 6 7.16504C6.87339 7.16504 7.44552 7.53208 7.77246 7.8418L8.03223 8.08887L8.29004 7.83984L9.61035 6.57031L9.89746 6.29395L9.60352 6.02441C8.66842 5.16456 7.44947 4.625 6 4.625ZM11.8145 9.69824L12.6211 12.1182L12.6504 12.1621C12.9196 12.5555 13.2192 12.9377 13.5391 13.2988L13.8174 13.6123L14.0986 13.3018C15.0733 12.2234 15.7785 10.9989 16.2246 9.70215L16.3955 9.20508H11.6494L11.8145 9.69824Z" fill="#0047B3" stroke="#0065FF" stroke-width="0.75"/>
</svg>
