<svg width="14" height="18" viewBox="0 0 14 18" fill="none" xmlns="http://www.w3.org/2000/svg">
<path d="M10.0464 0.0100405C9.82165 -0.0239946 9.58409 0.0278783 9.38743 0.175141C8.99321 0.466997 8.91065 1.0244 9.20188 1.41948C10.7113 3.46603 11.5429 6.12147 11.5429 8.89766C11.5429 11.6739 10.7113 14.3301 9.20188 16.3776C8.91065 16.7727 8.99321 17.3301 9.38743 17.6219C9.54547 17.7403 9.73081 17.7957 9.9146 17.7957C10.1872 17.7957 10.455 17.6709 10.6291 17.436C12.3631 15.0842 13.3187 12.052 13.3187 8.89766C13.3187 5.7433 12.3631 2.71196 10.6291 0.361096C10.4834 0.164005 10.2711 0.0440756 10.0464 0.0100405ZM7.06023 1.82441C6.83505 1.79471 6.59918 1.85174 6.40474 2.00167C6.01585 2.30065 5.94167 2.85975 6.23999 3.24949C7.3525 4.70165 7.99146 6.76035 7.99146 8.89766C7.99146 11.0296 7.35588 13.0858 6.24693 14.5389C5.94949 14.9286 6.02363 15.4869 6.41341 15.785C6.57411 15.9086 6.76276 15.9692 6.95098 15.9692C7.21735 15.9692 7.48097 15.8485 7.65677 15.6199C9.01699 13.8376 9.7672 11.4496 9.7672 8.89766C9.7672 6.33858 9.01453 3.9482 7.6481 2.16504C7.4985 1.97017 7.28542 1.85411 7.06023 1.82441ZM4.08448 3.60576C3.85774 3.59041 3.62535 3.66234 3.44112 3.82473C3.07176 4.14773 3.0347 4.70934 3.35788 5.07949C4.02556 5.84473 4.43997 7.30758 4.43997 8.89766C4.43997 10.4877 4.02471 11.9506 3.35615 12.7158C3.03385 13.086 3.07176 13.6476 3.44112 13.9706C3.60981 14.1183 3.81864 14.1913 4.02552 14.1913C4.27323 14.1913 4.51909 14.0892 4.69489 13.8872C5.64669 12.7963 6.21572 10.93 6.21572 8.89766C6.21572 6.86535 5.64584 4.99905 4.69316 3.90815C4.53156 3.72263 4.31122 3.6211 4.08448 3.60576ZM0.945716 5.50528C0.718976 5.49049 0.487034 5.56231 0.302356 5.72426C-0.0661101 6.04814 -0.10322 6.60975 0.220853 6.97902C0.644367 7.46396 0.88849 8.16357 0.88849 8.89766C0.88849 9.63175 0.644367 10.3314 0.220853 10.8163C-0.102332 11.1856 -0.0643759 11.7472 0.304091 12.0711C0.472786 12.2188 0.680728 12.2918 0.88849 12.2918C1.13443 12.2918 1.38122 12.1896 1.55613 11.9894C2.27175 11.1734 2.66423 10.0749 2.66423 8.89766C2.66423 7.72045 2.27175 6.62189 1.55613 5.80594C1.39498 5.6213 1.17246 5.52007 0.945716 5.50528Z" fill="white"/>
</svg>
