<svg width="13" height="14" viewBox="0 0 13 14" fill="none" xmlns="http://www.w3.org/2000/svg">
<path d="M7.99996 10.6667V11.3333C7.99996 12.4379 7.10453 13.3333 5.99996 13.3333C4.89539 13.3333 3.99996 12.4379 3.99996 11.3333V10.6667M10.6536 5.65072C10.6624 5.76569 10.6666 5.88237 10.6666 5.99999V8.48143C10.6666 8.59997 10.7137 8.71372 10.7975 8.79752L11.138 9.13801C11.263 9.26308 11.3333 9.43256 11.3333 9.60936V9.99999C11.3333 10.3682 11.0348 10.6667 10.6666 10.6667H7.99996L3.99996 10.6667M3.99996 10.6667L1.33329 10.6667C0.965106 10.6667 0.666626 10.3681 0.666626 9.99985V9.60937C0.666626 9.43257 0.736918 9.26326 0.861938 9.1382L1.20243 8.79721C1.28622 8.71341 1.33329 8.60014 1.33329 8.4816V5.99998C1.33329 3.42266 3.42263 1.33332 5.99996 1.33332C6.47436 1.33332 6.93223 1.40411 7.36358 1.5357M10.6536 5.65072C11.4578 5.19152 12 4.32573 12 3.33332C12 1.86056 10.8061 0.666656 9.33329 0.666656C8.55313 0.666656 7.85122 1.00168 7.36358 1.5357M10.6536 5.65072C10.2643 5.87298 9.81364 5.99999 9.33329 5.99999C7.86053 5.99999 6.66663 4.80608 6.66663 3.33332C6.66663 2.64072 6.93067 2.00979 7.36358 1.5357M10.6536 5.65072C10.6536 5.65072 10.6536 5.65072 10.6536 5.65072ZM7.36358 1.5357C7.36389 1.5358 7.36421 1.53589 7.36452 1.53599" stroke="white" stroke-width="1.33333" stroke-linecap="round" stroke-linejoin="round"/>
</svg>
