<svg width="21" height="21" viewBox="0 0 21 21" fill="none" xmlns="http://www.w3.org/2000/svg">
<path d="M2.33333 12.8333V10.5H4.66667V12.8333H2.33333ZM0 10.5V8.16667H2.33333V10.5H0ZM10.5 2.33333V0H12.8333V2.33333H10.5ZM1.75 5.25H5.25V1.75H1.75V5.25ZM0 7V0H7V7H0ZM1.75 19.25H5.25V15.75H1.75V19.25ZM0 21V14H7V21H0ZM15.75 5.25H19.25V1.75H15.75V5.25ZM14 7V0H21V7H14ZM7 12.8333V10.5H4.66667V8.16667H9.33333V12.8333H7ZM8.16667 7V2.33333H10.5V4.66667H12.8333V7H8.16667ZM2.625 4.375V2.625H4.375V4.375H2.625ZM2.625 18.375V16.625H4.375V18.375H2.625ZM16.625 4.375V2.625H18.375V4.375H16.625ZM15.1667 21V17.5H11.6667V15.1667H15.1667V11.6667H17.5V15.1667H21V17.5H17.5V21H15.1667Z" fill="white"/>
</svg>
