<svg width="19" height="21" viewBox="0 0 19 21" fill="none" xmlns="http://www.w3.org/2000/svg">
<path d="M11.0107 19.5165L16.471 16.364C17.0539 16.0275 17.3447 15.8592 17.5567 15.6238C17.7442 15.4155 17.886 15.1702 17.9727 14.9036C18.0703 14.603 18.0703 14.2672 18.0703 13.5973V7.28311C18.0703 6.6132 18.0703 6.27737 17.9727 5.97681C17.886 5.71025 17.7442 5.46471 17.5567 5.25643C17.3457 5.02204 17.0554 4.85448 16.4776 4.52086L11.0098 1.36402C10.4269 1.02749 10.136 0.859565 9.82617 0.793705C9.55202 0.735432 9.26858 0.735432 8.99443 0.793705C8.68458 0.859565 8.39275 1.02749 7.80986 1.36402L2.34859 4.51709C1.76638 4.85322 1.47551 5.02116 1.26367 5.25643C1.07613 5.46471 0.934498 5.71025 0.847887 5.97681C0.75 6.27808 0.75 6.61479 0.75 7.28785V13.5928C0.75 14.2659 0.75 14.6023 0.847887 14.9036C0.934498 15.1702 1.07613 15.4155 1.26367 15.6238C1.47563 15.8592 1.76672 16.0275 2.34961 16.364L7.80986 19.5165C8.39274 19.853 8.68459 20.021 8.99443 20.0869C9.26858 20.1452 9.55202 20.1452 9.82617 20.0869C10.136 20.021 10.4279 19.853 11.0107 19.5165Z" stroke="#0065FF" stroke-width="1.5" stroke-linecap="round" stroke-linejoin="round"/>
<path d="M6.41016 10.4402C6.41016 12.097 7.7533 13.4402 9.41016 13.4402C11.067 13.4402 12.4102 12.097 12.4102 10.4402C12.4102 8.78334 11.067 7.44019 9.41016 7.44019C7.7533 7.44019 6.41016 8.78334 6.41016 10.4402Z" stroke="#0065FF" stroke-width="1.5" stroke-linecap="round" stroke-linejoin="round"/>
</svg>
